<svg width="197" height="172" viewBox="0 0 197 172" fill="none" xmlns="http://www.w3.org/2000/svg">
<path d="M123.311 45.2492C118.283 46.3738 115.835 47.6308 112.329 50.8062C109.022 53.7831 107.235 57.5538 107.169 61.3908C107.169 63.2431 106.838 64.3677 106.243 64.5662C105.714 64.7646 104.986 65.8231 104.589 66.8815L103.928 68.8H94.4677C86.2646 68.8 84.6108 68.9985 82.3615 70.1231L79.7815 71.4462L77.9954 69.7262C76.6061 68.4031 75.4815 67.94 73.4308 67.94C69.66 67.94 67.0138 70.5862 65.9554 75.3492C65.0292 79.3185 64.0369 79.7815 63.3754 76.6062C63.1769 75.4154 62.1846 73.7615 61.1923 72.9677C59.6046 71.5123 56.2969 70.9169 55.3708 71.8431C54.7754 72.5046 56.76 76.0108 59.7369 79.5169C61.8538 82.0308 62.78 82.6923 64.4338 82.6923C65.5585 82.6923 66.8154 82.4277 67.2123 82.1631C68.4031 81.3692 69.4615 78.9215 69.4615 76.8708C69.4615 74.5554 71.7108 71.4462 73.4308 71.4462C74.0923 71.4462 75.2831 72.24 76.0108 73.1662C77.3338 74.8862 77.4 75.68 77.4 96.0554C77.4 119.672 77.5323 120.665 81.7 123.112C83.8169 124.369 84.0154 124.766 84.0154 127.611C84.0154 130.985 84.8754 132.308 86.9923 132.308C89.1754 132.308 89.9692 130.985 89.9692 127.545C89.9692 124.568 90.1015 124.369 91.6231 124.369C93.1446 124.369 93.2769 124.568 93.2769 127.545C93.2769 130.985 94.0708 132.308 96.2538 132.308C98.4369 132.308 99.2308 130.985 99.2308 127.545V124.369H105.846H112.462V128.008C112.462 131.315 112.594 131.646 114.115 132.043C117.092 132.771 117.754 132.043 117.754 128.008C117.754 124.435 117.754 124.369 119.738 124.369C121.723 124.369 121.723 124.435 121.723 128.008C121.723 131.382 121.855 131.646 123.509 132.043C126.288 132.771 127.346 131.646 127.545 127.478C127.677 124.502 128.008 123.575 129.066 122.98C132.043 121.392 132.969 118.548 132.969 110.94V103.862H137.865C142.495 103.862 142.892 103.729 144.414 101.943C146.002 100.025 147.523 94.0708 147.523 89.7708C147.523 87.7862 145.208 85.3385 143.422 85.3385C142.165 85.3385 141.768 83.6846 142.892 83.0231C143.289 82.7585 144.612 82.9569 145.935 83.3538C151.162 85.0738 155.329 80.0462 155.991 71.3138C156.255 67.2785 156.189 66.8154 154.668 65.36C153.543 64.3015 152.882 62.78 152.617 60.5969C151.691 54.1138 147.325 49.1523 140.048 46.44C135.218 44.5877 128.338 44.1246 123.311 45.2492ZM139.254 50.2108C145.142 52.7908 147.854 55.7015 149.045 60.8615C149.442 62.3831 149.177 62.6477 146.862 63.3754C143.355 64.4338 142.429 63.9046 141.9 60.4646C141.437 57.0908 139.915 55.1723 138.592 56.2308C138.129 56.6277 137.071 58.2815 136.343 59.9354L134.954 62.8462H130.058H125.229L124.038 60.2C123.377 58.7446 122.318 57.0908 121.657 56.4954C120.598 55.5031 120.466 55.5692 119.54 57.0246C119.011 57.8185 118.349 59.6708 118.151 60.9938C117.622 63.9708 116.232 64.5662 112.991 63.1769C110.742 62.2508 110.609 62.1185 111.072 60.0677C112.395 54.18 116.431 51.0046 125.362 48.6892C128.14 47.9615 136.211 48.8877 139.254 50.2108ZM113.917 72.1738C114.909 74.8862 115.703 77.4 115.703 77.8631C115.769 78.9877 111.8 80.1785 110.742 79.3185C109.551 78.3923 107.831 72.9677 107.831 70.3215C107.831 68.6015 108.162 67.94 109.352 67.4769C110.146 67.1462 111.138 66.9477 111.469 67.08C111.866 67.1462 112.925 69.4615 113.917 72.1738ZM130.985 67.08C130.985 67.2123 130.522 68.4031 129.992 69.66C128.008 74.4892 129.529 80.3108 133.697 83.5523L135.946 85.3385H129.198H122.517L119.738 77.0692C116.298 66.6831 116.232 66.8154 124.766 66.8154C128.206 66.8154 130.985 66.9477 130.985 67.08ZM150.434 67.4769C151.889 68.0062 152.154 68.4692 152.154 70.9169C152.154 73.6954 150.302 78.8554 148.978 79.6492C147.92 80.2446 144.083 78.6569 144.48 77.7308C144.612 77.2677 145.406 74.8862 146.134 72.4385C148.052 66.22 147.854 66.4846 150.434 67.4769ZM137.931 72.7692C137.931 75.5477 137.798 75.7462 136.145 75.9446C134.358 76.1431 134.292 76.0108 134.292 73.2323C134.292 69.9246 134.689 69.3292 136.608 69.5938C137.732 69.7923 137.931 70.2554 137.931 72.7692ZM112.065 83.8169C117.886 82.4938 117.754 82.4938 117.754 83.7508C117.754 84.4785 116.894 85.4046 115.637 86C112.263 87.5877 112.065 88.5138 113.322 95.0631C114.843 103.002 115.769 103.862 123.443 103.862H129V110.808C129 116.894 128.802 117.952 127.677 119.077C125.56 121.194 124.568 120.731 124.171 117.357C123.774 113.652 121.128 109.617 117.225 106.905C114.909 105.251 113.586 104.854 109.815 104.655C104.258 104.325 101.215 105.251 97.7754 108.36C94.7323 111.072 92.8138 114.512 92.2185 118.349C91.8215 120.995 91.6892 121.062 89.2415 121.062C86.3308 121.062 84.0154 120.268 82.4938 118.746C81.5015 117.82 81.3692 115.637 81.3692 100.818C81.3692 84.1477 81.3692 84.0154 82.6923 85.3385C86.6615 89.3077 93.8061 90.4323 99.0323 87.9185C101.943 86.5292 105.846 82.4277 105.846 80.84C105.846 80.2446 106.772 80.7077 108.228 82.0308C109.882 83.42 111.138 84.0154 112.065 83.8169ZM143.488 91.0938C143.488 92.1523 143.091 94.4015 142.628 96.2538L141.9 99.5615L130.191 99.76L118.482 99.8923L117.82 97.4446C117.423 96.0554 116.96 93.6738 116.695 92.0862L116.232 89.3077H129.926H143.554L143.488 91.0938Z" fill="#2F2E41"/>
<path d="M122.385 72.7692C122.385 75.8785 122.517 76.0769 124.038 76.0769C125.56 76.0769 125.692 75.8785 125.692 72.7692C125.692 69.66 125.56 69.4615 124.038 69.4615C122.517 69.4615 122.385 69.66 122.385 72.7692Z" fill="#2F2E41"/>
<path d="M122.517 94.4015C122.715 97.0477 122.914 97.5769 124.038 97.5769C125.163 97.5769 125.362 97.0477 125.56 94.4015C125.758 91.4246 125.692 91.2923 124.038 91.2923C122.385 91.2923 122.318 91.4246 122.517 94.4015Z" fill="#2F2E41"/>
<path d="M134.425 94.4015C134.623 97.1138 134.822 97.5769 136.079 97.7754C137.203 97.9077 137.666 97.5769 137.931 96.3862C138.725 93.3431 138.063 91.6231 136.079 91.4246C134.226 91.2262 134.226 91.2262 134.425 94.4015Z" fill="#2F2E41"/>
</svg>
